<svg width="24" height="25" viewBox="0 0 24 25" fill="none" xmlns="http://www.w3.org/2000/svg">
<g clip-path="url(#clip0_25_1982)">
<path d="M12.0001 0.875C5.3735 0.875 0 6.20452 0 12.7791C0 18.0386 3.43839 22.5008 8.2064 24.0749C8.80613 24.1851 9.02631 23.8166 9.02631 23.5022C9.02631 23.2183 9.01518 22.2806 9.01001 21.2859C5.67157 22.006 4.96712 19.8814 4.96712 19.8814C4.42125 18.5054 3.63473 18.1396 3.63473 18.1396C2.54596 17.4007 3.7168 17.4159 3.7168 17.4159C4.92181 17.4999 5.55632 18.6426 5.55632 18.6426C6.6266 20.4625 8.36359 19.9364 9.04836 19.6322C9.15607 18.8628 9.46706 18.3377 9.81024 18.0404C7.14486 17.7394 4.34295 16.7187 4.34295 12.1574C4.34295 10.8577 4.81172 9.79578 5.57937 8.96213C5.45477 8.6623 5.04402 7.45155 5.69562 5.81185C5.69562 5.81185 6.70331 5.49191 8.9965 7.03206C9.95372 6.7683 10.9803 6.63603 12.0001 6.6315C13.0199 6.63603 14.0473 6.7683 15.0063 7.03206C17.2967 5.49191 18.303 5.81185 18.303 5.81185C18.9562 7.45155 18.5452 8.6623 18.4206 8.96213C19.1901 9.79578 19.6557 10.8577 19.6557 12.1574C19.6557 16.7295 16.8484 17.7362 14.1762 18.031C14.6067 18.4004 14.9902 19.1248 14.9902 20.2354C14.9902 21.8282 14.9763 23.1101 14.9763 23.5022C14.9763 23.819 15.1923 24.1902 15.8006 24.0733C20.566 22.4975 24 18.0369 24 12.7791C24 6.20452 18.6273 0.875 12.0001 0.875ZM4.49443 17.8326C4.468 17.8918 4.3742 17.9095 4.28876 17.8689C4.20172 17.8301 4.15283 17.7495 4.18105 17.6901C4.20688 17.6292 4.30088 17.6122 4.38772 17.6531C4.47495 17.6919 4.52463 17.7733 4.49443 17.8326ZM5.0847 18.3551C5.02747 18.4077 4.91559 18.3833 4.83968 18.3001C4.76119 18.2171 4.74648 18.1061 4.80451 18.0527C4.86353 18.0001 4.97203 18.0247 5.05072 18.1077C5.12921 18.1917 5.14451 18.3019 5.0847 18.3551ZM5.48965 19.0236C5.41612 19.0743 5.2959 19.0268 5.22158 18.9209C5.14805 18.815 5.14805 18.6881 5.22317 18.6372C5.29769 18.5864 5.41612 18.6321 5.49144 18.7372C5.56476 18.8448 5.56476 18.9718 5.48965 19.0236ZM6.1745 19.7978C6.10873 19.8698 5.96863 19.8505 5.86609 19.7523C5.76117 19.6563 5.73196 19.5201 5.79793 19.4481C5.8645 19.376 6.00539 19.3963 6.10873 19.4937C6.21285 19.5895 6.24465 19.7267 6.1745 19.7978ZM7.05961 20.0592C7.0306 20.1524 6.89567 20.1948 6.75975 20.1552C6.62402 20.1144 6.5352 20.0052 6.56262 19.9109C6.59084 19.8171 6.72636 19.773 6.86328 19.8153C6.9988 19.8559 7.08783 19.9644 7.05961 20.0592ZM8.0669 20.17C8.07028 20.2682 7.95502 20.3496 7.81235 20.3514C7.66887 20.3546 7.55282 20.2751 7.55123 20.1785C7.55123 20.0794 7.6639 19.9987 7.80738 19.9964C7.95006 19.9936 8.0669 20.0725 8.0669 20.17ZM9.05645 20.1324C9.07354 20.2282 8.97438 20.3266 8.8327 20.3528C8.6934 20.378 8.56443 20.3189 8.54674 20.2239C8.52946 20.1257 8.6304 20.0273 8.7695 20.0019C8.91139 19.9775 9.03837 20.035 9.05645 20.1324Z" fill="white"/>
</g>
<defs>
<clipPath id="clip0_25_1982">
<rect width="24" height="23.25" fill="white" transform="translate(0 0.875)"/>
</clipPath>
</defs>
</svg>
